<?xml version="1.0" encoding="utf-8"?>
<!-- Generator: Adobe Illustrator 28.1.0, SVG Export Plug-In . SVG Version: 6.00 Build 0)  -->
<svg version="1.1" id="Layer_1" xmlns="http://www.w3.org/2000/svg" xmlns:xlink="http://www.w3.org/1999/xlink" x="0px" y="0px"
	 viewBox="0 0 512 512" style="enable-background:new 0 0 512 512;" xml:space="preserve">
<style type="text/css">
	.st0{opacity:0.75;}
</style>
<g class="st0">
	<path d="M357.9,373.6h-78.4c-0.3,0-0.6,0-0.9-0.1c-0.3,0-0.7,0.1-1,0.1H154.1c-4.3,0-7.8-3.5-7.8-7.8V162c0-13,10.5-23.5,23.5-23.5
		h94c13,0,23.5,10.5,23.5,23.5v54.9h54.9c13,0,23.5,10.5,23.5,23.5v125.4C365.7,370,362.2,373.6,357.9,373.6z M287.3,357.9H350
		V240.3c0-4.3-3.5-7.8-7.8-7.8h-54.9V357.9z M224.7,357.9h47V162c0-4.3-3.5-7.8-7.8-7.8h-94c-4.3,0-7.8,3.5-7.8,7.8v195.9h47v-23.5
		c0-4.3,3.5-7.8,7.8-7.8s7.8,3.5,7.8,7.8V357.9z"/>
</g>
<g class="st0">
	<path d="M178.7,342.1c-4.3,0.6-8.2-2.5-8.8-6.8c-0.6-4.3,2.5-8.2,6.8-8.8c4.3-0.6,8.2,2.5,8.8,6.8c0.1,0.7,0.1,1.4,0,2
		C184.9,338.9,182.2,341.7,178.7,342.1z M178.7,303c-4.3,0.6-8.2-2.5-8.8-6.8c-0.6-4.3,2.5-8.2,6.8-8.8c4.3-0.6,8.2,2.5,8.8,6.8
		c0.1,0.7,0.1,1.4,0,2C184.9,299.7,182.2,302.5,178.7,303z M178.7,263.8c-4.3,0.6-8.2-2.5-8.8-6.8c-0.6-4.3,2.5-8.2,6.8-8.8
		c4.3-0.6,8.2,2.5,8.8,6.8c0.1,0.7,0.1,1.4,0,2C184.9,260.5,182.2,263.3,178.7,263.8z M178.7,224.6c-4.3,0.6-8.2-2.5-8.8-6.8
		c-0.6-4.3,2.5-8.2,6.8-8.8s8.2,2.5,8.8,6.8c0.1,0.7,0.1,1.4,0,2C184.9,221.4,182.2,224.1,178.7,224.6z M178.7,185.4
		c-4.3,0.6-8.2-2.5-8.8-6.8c-0.6-4.3,2.5-8.2,6.8-8.8c4.3-0.6,8.2,2.5,8.8,6.8c0.1,0.7,0.1,1.4,0,2
		C184.9,182.2,182.2,184.9,178.7,185.4z M217.8,303c-4.3,0.6-8.2-2.5-8.8-6.8c-0.6-4.3,2.5-8.2,6.8-8.8c4.3-0.6,8.2,2.5,8.8,6.8
		c0.1,0.7,0.1,1.4,0,2C224.1,299.7,221.4,302.5,217.8,303z M217.8,263.8c-4.3,0.6-8.2-2.5-8.8-6.8c-0.6-4.3,2.5-8.2,6.8-8.8
		c4.3-0.6,8.2,2.5,8.8,6.8c0.1,0.7,0.1,1.4,0,2C224.1,260.5,221.4,263.3,217.8,263.8z M217.8,224.6c-4.3,0.6-8.2-2.5-8.8-6.8
		c-0.6-4.3,2.5-8.2,6.8-8.8c4.3-0.6,8.2,2.5,8.8,6.8c0.1,0.7,0.1,1.4,0,2C224.1,221.4,221.4,224.1,217.8,224.6z M217.8,185.4
		c-4.3,0.6-8.2-2.5-8.8-6.8c-0.6-4.3,2.5-8.2,6.8-8.8c4.3-0.6,8.2,2.5,8.8,6.8c0.1,0.7,0.1,1.4,0,2
		C224.1,182.2,221.4,184.9,217.8,185.4z M257,342.1c-4.3,0.6-8.2-2.5-8.8-6.8c-0.6-4.3,2.5-8.2,6.8-8.8c4.3-0.6,8.2,2.5,8.8,6.8
		c0.1,0.7,0.1,1.4,0,2C263.3,338.9,260.5,341.7,257,342.1z M257,303c-4.3,0.6-8.2-2.5-8.8-6.8c-0.6-4.3,2.5-8.2,6.8-8.8
		c4.3-0.6,8.2,2.5,8.8,6.8c0.1,0.7,0.1,1.4,0,2C263.3,299.7,260.5,302.5,257,303z M257,263.8c-4.3,0.6-8.2-2.5-8.8-6.8
		c-0.6-4.3,2.5-8.2,6.8-8.8c4.3-0.6,8.2,2.5,8.8,6.8c0.1,0.7,0.1,1.4,0,2C263.3,260.5,260.5,263.3,257,263.8z"/>
</g>
<g class="st0">
	<ellipse transform="matrix(0.7071 -0.7071 0.7071 0.7071 -78.3281 244.5301)" cx="256" cy="216.8" rx="7.8" ry="7.9"/>
</g>
<g class="st0">
	<path d="M257,185.4c-4.3,0.6-8.2-2.5-8.8-6.8c-0.6-4.3,2.5-8.2,6.8-8.8s8.2,2.5,8.8,6.8c0.1,0.7,0.1,1.4,0,2
		C263.3,182.2,260.5,184.9,257,185.4z M326.5,326.5c-4.3,0-7.8,3.5-7.8,7.8c0,4.3,3.5,7.8,7.8,7.8s7.8-3.5,7.8-7.8
		C334.4,330,330.9,326.5,326.5,326.5z M326.5,287.3c-4.3,0-7.8,3.5-7.8,7.8c0,4.3,3.5,7.8,7.8,7.8s7.8-3.5,7.8-7.8
		C334.4,290.9,330.9,287.3,326.5,287.3z M326.5,248.2c-4.3,0-7.8,3.5-7.8,7.8c0,4.3,3.5,7.8,7.8,7.8s7.8-3.5,7.8-7.8
		C334.4,251.7,330.9,248.2,326.5,248.2z M295.2,326.5c-4.3,0-7.8,3.5-7.8,7.8c0,4.3,3.5,7.8,7.8,7.8c4.3,0,7.8-3.5,7.8-7.8
		C303,330,299.5,326.5,295.2,326.5z M295.2,287.3c-4.3,0-7.8,3.5-7.8,7.8c0,4.3,3.5,7.8,7.8,7.8c4.3,0,7.8-3.5,7.8-7.8
		C303,290.9,299.5,287.3,295.2,287.3z M295.2,248.2c-4.3,0-7.8,3.5-7.8,7.8c0,4.3,3.5,7.8,7.8,7.8c4.3,0,7.8-3.5,7.8-7.8
		C303,251.7,299.5,248.2,295.2,248.2z"/>
</g>
</svg>
